<svg width="135" height="40" viewBox="0 0 135 40" fill="none" xmlns="http://www.w3.org/2000/svg">
<g clip-path="url(#clip0_2681_10526)">
<path d="M130 0H5C2.23858 0 0 2.23858 0 5V35C0 37.7614 2.23858 40 5 40H130C132.761 40 135 37.7614 135 35V5C135 2.23858 132.761 0 130 0Z" fill="black"/>
<path d="M130 0.8C131.114 0.8 132.182 1.2425 132.97 2.03015C133.758 2.8178 134.2 3.88609 134.2 5V35C134.2 36.1139 133.758 37.1822 132.97 37.9698C132.182 38.7575 131.114 39.2 130 39.2H5C3.88609 39.2 2.8178 38.7575 2.03015 37.9698C1.2425 37.1822 0.8 36.1139 0.8 35V5C0.8 3.88609 1.2425 2.8178 2.03015 2.03015C2.8178 1.2425 3.88609 0.8 5 0.8H130ZM130 0H5C3.67392 0 2.40215 0.526784 1.46447 1.46447C0.526784 2.40215 0 3.67392 0 5V35C0 36.3261 0.526784 37.5979 1.46447 38.5355C2.40215 39.4732 3.67392 40 5 40H130C131.326 40 132.598 39.4732 133.536 38.5355C134.473 37.5979 135 36.3261 135 35V5C135 3.67392 134.473 2.40215 133.536 1.46447C132.598 0.526784 131.326 0 130 0Z" fill="#A6A6A6"/>
<path d="M32.1136 19.3128C32.086 16.2419 34.6281 14.7479 34.7443 14.6783C33.3047 12.5793 31.0732 12.2925 30.289 12.2696C28.4148 12.0724 26.5969 13.3911 25.6422 13.3911C24.6684 13.3911 23.1982 12.2887 21.6137 12.3211C19.5747 12.3525 17.6672 13.533 16.621 15.3662C14.462 19.1041 16.0722 24.597 18.1407 27.6184C19.1755 29.0981 20.3846 30.7503 21.9672 30.6921C23.5155 30.6283 24.0939 29.705 25.9623 29.705C27.8136 29.705 28.3567 30.6921 29.9708 30.655C31.6325 30.6283 32.6787 29.1686 33.6772 27.6755C34.873 25.9796 35.3532 24.3093 35.3722 24.2235C35.3332 24.2102 32.1451 22.9935 32.1136 19.3128Z" fill="white"/>
<path d="M29.0651 10.2823C29.8978 9.24084 30.4676 7.82402 30.3094 6.38623C29.1041 6.43959 27.5968 7.21994 26.7288 8.23849C25.9608 9.13603 25.2748 10.6072 25.452 11.9906C26.806 12.0916 28.1961 11.3075 29.0651 10.2823Z" fill="white"/>
<path d="M54.5192 30.4793H52.3554L51.1701 26.7547H47.0502L45.9211 30.4793H43.8145L47.8963 17.7993H50.4174L54.5192 30.4793ZM50.8128 25.1921L49.7409 21.8811C49.6275 21.5429 49.415 20.7463 49.1016 19.4925H49.0635C48.9386 20.0317 48.7376 20.8283 48.4613 21.8811L47.4084 25.1921H50.8128Z" fill="white"/>
<path d="M65.0158 25.7953C65.0158 27.3503 64.5956 28.5794 63.7553 29.4817C63.0025 30.2849 62.0678 30.686 60.9521 30.686C59.7478 30.686 58.8826 30.2535 58.3557 29.3883H58.3176V34.2047H56.2862V24.3461C56.2862 23.3685 56.2605 22.3652 56.2109 21.3361H57.9974L58.1108 22.7854H58.1489C58.8264 21.6934 59.8545 21.1484 61.2341 21.1484C62.3127 21.1484 63.2131 21.5743 63.9334 22.4271C64.6557 23.2808 65.0158 24.4032 65.0158 25.7953ZM62.9463 25.8696C62.9463 24.9797 62.7462 24.246 62.3442 23.6686C61.9049 23.0664 61.3151 22.7654 60.5757 22.7654C60.0746 22.7654 59.6191 22.933 59.2123 23.2637C58.8045 23.5971 58.5377 24.0326 58.4129 24.5719C58.35 24.8234 58.3185 25.0292 58.3185 25.1912V26.7157C58.3185 27.3807 58.5224 27.9419 58.9302 28.4002C59.338 28.8585 59.8678 29.0872 60.5195 29.0872C61.2846 29.0872 61.8801 28.7918 62.306 28.203C62.7329 27.6132 62.9463 26.8357 62.9463 25.8696Z" fill="white"/>
<path d="M75.5324 25.7953C75.5324 27.3503 75.1123 28.5794 74.2709 29.4817C73.5192 30.2849 72.5845 30.686 71.4687 30.686C70.2644 30.686 69.3992 30.2535 68.8733 29.3883H68.8352V34.2047H66.8038V24.3461C66.8038 23.3685 66.7781 22.3652 66.7285 21.3361H68.515L68.6284 22.7854H68.6665C69.343 21.6934 70.3711 21.1484 71.7517 21.1484C72.8293 21.1484 73.7297 21.5743 74.452 22.4271C75.1713 23.2808 75.5324 24.4032 75.5324 25.7953ZM73.463 25.8696C73.463 24.9797 73.2619 24.246 72.8598 23.6686C72.4206 23.0664 71.8327 22.7654 71.0924 22.7654C70.5902 22.7654 70.1358 22.933 69.728 23.2637C69.3202 23.5971 69.0543 24.0326 68.9295 24.5719C68.8676 24.8234 68.8352 25.0292 68.8352 25.1912V26.7157C68.8352 27.3807 69.0391 27.9419 69.445 28.4002C69.8528 28.8576 70.3825 29.0872 71.0362 29.0872C71.8013 29.0872 72.3968 28.7918 72.8227 28.203C73.2495 27.6132 73.463 26.8357 73.463 25.8696Z" fill="white"/>
<path d="M87.2902 26.9236C87.2902 28.0022 86.9157 28.8798 86.164 29.5572C85.3379 30.2975 84.1879 30.6672 82.7101 30.6672C81.3456 30.6672 80.2518 30.4042 79.4238 29.8773L79.8945 28.1842C80.7863 28.7235 81.7649 28.9941 82.8311 28.9941C83.5962 28.9941 84.1917 28.8207 84.6195 28.4758C85.0454 28.1308 85.2579 27.6678 85.2579 27.0904C85.2579 26.5759 85.0825 26.1423 84.731 25.7908C84.3813 25.4392 83.7972 25.1124 82.9816 24.8103C80.7616 23.9823 79.6525 22.7694 79.6525 21.1744C79.6525 20.132 80.0413 19.2774 80.8197 18.6123C81.5953 17.9463 82.63 17.6138 83.9239 17.6138C85.0778 17.6138 86.0363 17.8148 86.8014 18.2159L86.2936 19.8719C85.579 19.4832 84.771 19.2888 83.8668 19.2888C83.1522 19.2888 82.5938 19.4651 82.1936 19.8157C81.8554 20.1292 81.6858 20.5113 81.6858 20.9638C81.6858 21.465 81.8792 21.8795 82.268 22.2053C82.6062 22.5064 83.2208 22.8323 84.1126 23.1839C85.2036 23.6231 86.0049 24.1367 86.5203 24.7255C87.0339 25.3124 87.2902 26.0471 87.2902 26.9236Z" fill="white"/>
<path d="M94.0057 22.8608H91.7666V27.2999C91.7666 28.429 92.1611 28.993 92.9519 28.993C93.3149 28.993 93.616 28.9616 93.8542 28.8987L93.9104 30.4413C93.5102 30.5909 92.9833 30.6661 92.3307 30.6661C91.5284 30.6661 90.9015 30.4213 90.4489 29.9325C89.9982 29.4427 89.7714 28.6214 89.7714 27.4676V22.8588H88.4375V21.3344H89.7714V19.6603L91.7666 19.0581V21.3344H94.0057V22.8608Z" fill="white"/>
<path d="M104.109 25.8325C104.109 27.2378 103.707 28.3917 102.904 29.294C102.063 30.223 100.946 30.6861 99.5543 30.6861C98.2128 30.6861 97.1447 30.2411 96.3481 29.3512C95.5516 28.4613 95.1533 27.3379 95.1533 25.984C95.1533 24.5671 95.563 23.4066 96.3853 22.5043C97.2057 21.601 98.3128 21.1494 99.7049 21.1494C101.046 21.1494 102.126 21.5944 102.941 22.4852C103.72 23.3494 104.109 24.4652 104.109 25.8325ZM102.001 25.8982C102.001 25.055 101.821 24.3318 101.456 23.7287C101.03 22.9988 100.421 22.6348 99.6325 22.6348C98.8159 22.6348 98.1956 22.9998 97.7697 23.7287C97.4048 24.3327 97.2247 25.0674 97.2247 25.9363C97.2247 26.7795 97.4048 27.5027 97.7697 28.1049C98.209 28.8347 98.8226 29.1987 99.6144 29.1987C100.39 29.1987 100.999 28.8271 101.438 28.0858C101.812 27.4713 102.001 26.7405 102.001 25.8982Z" fill="white"/>
<path d="M110.712 23.1227C110.511 23.0855 110.297 23.0664 110.072 23.0664C109.357 23.0664 108.805 23.3361 108.416 23.8763C108.078 24.3527 107.908 24.9549 107.908 25.6819V30.4793H105.877L105.897 24.2155C105.897 23.1617 105.871 22.2022 105.82 21.3371H107.59L107.664 23.0864H107.72C107.935 22.4852 108.273 22.0012 108.736 21.6382C109.188 21.3114 109.677 21.1484 110.204 21.1484C110.392 21.1484 110.561 21.1618 110.712 21.1856V23.1227Z" fill="white"/>
<path d="M119.797 25.4752C119.797 25.8392 119.774 26.146 119.723 26.3966H113.629C113.653 27.2998 113.947 27.9906 114.513 28.467C115.027 28.8929 115.691 29.1063 116.506 29.1063C117.409 29.1063 118.232 28.9625 118.972 28.6738L119.291 30.0839C118.425 30.4612 117.404 30.6489 116.225 30.6489C114.808 30.6489 113.695 30.2316 112.885 29.3979C112.077 28.5642 111.672 27.4446 111.672 26.0402C111.672 24.6615 112.048 23.5134 112.802 22.5977C113.591 21.6201 114.657 21.1313 115.999 21.1313C117.316 21.1313 118.314 21.6201 118.991 22.5977C119.528 23.3743 119.797 24.3347 119.797 25.4752ZM117.86 24.9483C117.874 24.3461 117.741 23.8259 117.466 23.3866C117.114 22.8216 116.574 22.5396 115.847 22.5396C115.183 22.5396 114.643 22.815 114.23 23.3676C113.892 23.8068 113.691 24.3337 113.629 24.9473H117.86V24.9483Z" fill="white"/>
<path d="M51.0973 14.7008H50.0407V13.1247H45.8185V14.7008H44.7442L44.709 12.2353H45.2241C45.4795 11.9888 45.6834 11.6307 45.8361 11.1611C45.9887 10.6885 46.087 10.1543 46.1311 9.5585L46.2984 6.71436H50.34V12.2353H51.1545L51.0973 14.7008ZM46.4833 12.2353H49.2306V7.61251H47.3594L47.2537 9.41761C47.1745 10.624 46.9177 11.5632 46.4833 12.2353Z" fill="white"/>
<path d="M52.1381 10.6988C52.1381 10.2321 52.2306 9.81239 52.4155 9.43962C52.6004 9.06393 52.8601 8.77629 53.1947 8.5767C53.5293 8.37417 53.9139 8.27291 54.3482 8.27291C54.991 8.27291 55.512 8.47984 55.9112 8.89369C56.3133 9.30754 56.5305 9.85641 56.5628 10.5403L56.5672 10.7913C56.5672 11.2609 56.4762 11.6806 56.2942 12.0504C56.1152 12.4203 55.8569 12.7064 55.5194 12.9089C55.1848 13.1115 54.7973 13.2127 54.3571 13.2127C53.6849 13.2127 53.1463 12.9897 52.7413 12.5435C52.3392 12.0945 52.1381 11.4972 52.1381 10.7516V10.6988ZM53.208 10.7913C53.208 11.2814 53.3092 11.6659 53.5117 11.9448C53.7143 12.2207 53.996 12.3586 54.3571 12.3586C54.7181 12.3586 54.9984 12.2177 55.198 11.936C55.4005 11.6542 55.5018 11.2418 55.5018 10.6988C55.5018 10.2174 55.3976 9.83587 55.1892 9.55409C54.9837 9.27232 54.7034 9.13144 54.3482 9.13144C53.999 9.13144 53.7216 9.27085 53.5161 9.54969C53.3107 9.82559 53.208 10.2394 53.208 10.7913Z" fill="white"/>
<path d="M59.8798 12.3586C60.1469 12.3586 60.3685 12.2808 60.5446 12.1253C60.7207 11.9697 60.8146 11.7775 60.8264 11.5485H61.8346C61.8229 11.845 61.7304 12.1223 61.5572 12.3806C61.3841 12.636 61.1492 12.8385 60.8528 12.9882C60.5563 13.1379 60.2364 13.2127 59.893 13.2127C59.2267 13.2127 58.6984 12.997 58.308 12.5655C57.9177 12.1341 57.7225 11.5382 57.7225 10.778V10.668C57.7225 9.943 57.9162 9.36331 58.3036 8.92891C58.6911 8.49158 59.2194 8.27291 59.8886 8.27291C60.4551 8.27291 60.9159 8.43875 61.271 8.77041C61.6291 9.09915 61.817 9.53208 61.8346 10.0692H60.8264C60.8146 9.79624 60.7207 9.57171 60.5446 9.3956C60.3714 9.21949 60.1498 9.13144 59.8798 9.13144C59.5335 9.13144 59.2664 9.25765 59.0785 9.51007C58.8907 9.75955 58.7953 10.1397 58.7923 10.6504V10.8221C58.7923 11.3387 58.8848 11.7246 59.0697 11.98C59.2576 12.2324 59.5276 12.3586 59.8798 12.3586Z" fill="white"/>
<path d="M66.8422 9.21068H65.2969V13.1247H64.227V9.21068H62.6993V8.36096H66.8422V9.21068Z" fill="white"/>
<path d="M69.7278 11.5925L70.6963 8.36096H71.8366L69.9435 13.8467C69.6529 14.648 69.1598 15.0487 68.4642 15.0487C68.3086 15.0487 68.1369 15.0222 67.9491 14.9694V14.1417L68.1516 14.1549C68.4216 14.1549 68.6241 14.105 68.7592 14.0052C68.8971 13.9084 69.0057 13.744 69.085 13.5121L69.2391 13.1027L67.566 8.36096H68.7195L69.7278 11.5925Z" fill="white"/>
<path d="M76.9455 13.1247H75.8757V9.22389H74.0177V13.1247H72.9479V8.36096H76.9455V13.1247Z" fill="white"/>
<path d="M82.5695 13.1247H81.4997V11.2007H79.6461V13.1247H78.5763V8.36096H79.6461V10.3466H81.4997V8.36096H82.5695V13.1247Z" fill="white"/>
<path d="M83.9626 10.6988C83.9626 10.2321 84.055 9.81239 84.2399 9.43962C84.4248 9.06393 84.6846 8.77629 85.0192 8.5767C85.3538 8.37417 85.7383 8.27291 86.1727 8.27291C86.8155 8.27291 87.3365 8.47984 87.7357 8.89369C88.1378 9.30754 88.355 9.85641 88.3873 10.5403L88.3917 10.7913C88.3917 11.2609 88.3007 11.6806 88.1187 12.0504C87.9397 12.4203 87.6814 12.7064 87.3438 12.9089C87.0092 13.1115 86.6218 13.2127 86.1815 13.2127C85.5094 13.2127 84.9708 12.9897 84.5657 12.5435C84.1636 12.0945 83.9626 11.4972 83.9626 10.7516V10.6988ZM85.0324 10.7913C85.0324 11.2814 85.1337 11.6659 85.3362 11.9448C85.5387 12.2207 85.8205 12.3586 86.1815 12.3586C86.5425 12.3586 86.8228 12.2177 87.0224 11.936C87.2249 11.6542 87.3262 11.2418 87.3262 10.6988C87.3262 10.2174 87.222 9.83587 87.0136 9.55409C86.8082 9.27232 86.5279 9.13144 86.1727 9.13144C85.8234 9.13144 85.5461 9.27085 85.3406 9.54969C85.1351 9.82559 85.0324 10.2394 85.0324 10.7913Z" fill="white"/>
<path d="M92.5249 13.1247V8.36096H94.4577C95.1093 8.36096 95.6053 8.47543 95.9458 8.70437C96.2863 8.93038 96.4565 9.25618 96.4565 9.68177C96.4565 9.90191 96.3876 10.1 96.2496 10.2761C96.1146 10.4493 95.9135 10.5829 95.6464 10.6768C95.9576 10.7414 96.2041 10.872 96.3861 11.0686C96.5681 11.2653 96.6591 11.4972 96.6591 11.7642C96.6591 12.2075 96.4947 12.545 96.166 12.7769C95.8402 13.0087 95.3705 13.1247 94.7571 13.1247H92.5249ZM93.5948 11.095V12.2794H94.7659C95.3148 12.2794 95.5892 12.0827 95.5892 11.6894C95.5892 11.2932 95.3104 11.095 94.7527 11.095H93.5948ZM93.5948 10.329H94.4753C95.0829 10.329 95.3867 10.1499 95.3867 9.79184C95.3867 9.41614 95.099 9.22242 94.5237 9.21068H93.5948V10.329Z" fill="white"/>
</g>
<defs>
<clipPath id="clip0_2681_10526">
<rect width="135" height="40" fill="white"/>
</clipPath>
</defs>
</svg>
