<svg width="135" height="40" viewBox="0 0 135 40" fill="none" xmlns="http://www.w3.org/2000/svg">
<g clip-path="url(#clip0_2600_31011)">
<path d="M130 0H5C2.23858 0 0 2.23858 0 5V35C0 37.7614 2.23858 40 5 40H130C132.761 40 135 37.7614 135 35V5C135 2.23858 132.761 0 130 0Z" fill="black"/>
<path d="M130 0.8C131.114 0.8 132.182 1.2425 132.97 2.03015C133.758 2.8178 134.2 3.88609 134.2 5V35C134.2 36.1139 133.758 37.1822 132.97 37.9698C132.182 38.7575 131.114 39.2 130 39.2H5C3.88609 39.2 2.8178 38.7575 2.03015 37.9698C1.2425 37.1822 0.8 36.1139 0.8 35V5C0.8 3.88609 1.2425 2.8178 2.03015 2.03015C2.8178 1.2425 3.88609 0.8 5 0.8H130ZM130 0H5C3.67392 0 2.40215 0.526784 1.46447 1.46447C0.526784 2.40215 0 3.67392 0 5V35C0 36.3261 0.526784 37.5979 1.46447 38.5355C2.40215 39.4732 3.67392 40 5 40H130C131.326 40 132.598 39.4732 133.536 38.5355C134.473 37.5979 135 36.3261 135 35V5C135 3.67392 134.473 2.40215 133.536 1.46447C132.598 0.526784 131.326 0 130 0Z" fill="#A6A6A6"/>
<path d="M68.1412 21.7496C67.3015 21.7536 66.4818 22.0062 65.7855 22.4756C65.0892 22.945 64.5476 23.6101 64.229 24.387C63.9104 25.164 63.8291 26.0179 63.9953 26.841C64.1616 27.6641 64.5679 28.4195 65.1631 29.0118C65.7582 29.6042 66.5155 30.007 67.3394 30.1694C68.1633 30.3317 69.0168 30.2464 69.7922 29.9242C70.5676 29.6019 71.2302 29.0572 71.6963 28.3587C72.1624 27.6602 72.4112 26.8393 72.4112 25.9996C72.4194 25.4376 72.3143 24.8796 72.1024 24.359C71.8904 23.8383 71.5759 23.3657 71.1775 22.9691C70.779 22.5726 70.3049 22.2603 69.7833 22.0508C69.2617 21.8412 68.7032 21.7388 68.1412 21.7496ZM68.1412 28.5796C67.6248 28.6157 67.1094 28.4957 66.6622 28.235C66.2149 27.9744 65.8564 27.5852 65.6332 27.1181C65.4101 26.651 65.3326 26.1275 65.4109 25.6158C65.4892 25.1041 65.7196 24.6277 66.0722 24.2487C66.4248 23.8696 66.8832 23.6054 67.388 23.4904C67.8927 23.3754 68.4204 23.4149 68.9024 23.6037C69.3844 23.7926 69.7984 24.122 70.0907 24.5493C70.383 24.9766 70.5399 25.4819 70.5412 25.9996C70.5573 26.3276 70.5076 26.6556 70.3949 26.9641C70.2823 27.2725 70.109 27.5554 69.8853 27.7958C69.6617 28.0363 69.3921 28.2295 69.0925 28.3641C68.793 28.4987 68.4695 28.572 68.1412 28.5796ZM58.8312 21.7496C57.9911 21.7516 57.1703 22.0025 56.4728 22.4707C55.7752 22.9389 55.232 23.6034 54.9119 24.3801C54.5917 25.1569 54.509 26.0111 54.6741 26.8349C54.8392 27.6586 55.2448 28.415 55.8395 29.0084C56.4343 29.6017 57.1916 30.0055 58.0157 30.1687C58.8399 30.3319 59.6939 30.2471 60.4699 29.9252C61.2459 29.6032 61.9091 29.0585 62.3756 28.3598C62.8422 27.6611 63.0912 26.8398 63.0912 25.9996C63.0993 25.4376 62.9943 24.8796 62.7824 24.359C62.5704 23.8383 62.2559 23.3657 61.8575 22.9691C61.459 22.5726 60.9849 22.2603 60.4633 22.0508C59.9417 21.8412 59.3832 21.7388 58.8212 21.7496H58.8312ZM58.8312 28.5796C58.3145 28.6178 57.7983 28.4995 57.3498 28.2402C56.9013 27.9809 56.5413 27.5925 56.3166 27.1257C56.0918 26.6589 56.0129 26.1353 56.0899 25.623C56.1669 25.1106 56.3964 24.6334 56.7485 24.2533C57.1006 23.8733 57.5589 23.608 58.0639 23.4921C58.5688 23.3761 59.097 23.4149 59.5796 23.6033C60.0622 23.7917 60.4768 24.1211 60.7696 24.5485C61.0624 24.9759 61.2198 25.4816 61.2212 25.9996C61.2373 26.3276 61.1876 26.6556 61.0749 26.9641C60.9623 27.2725 60.789 27.5554 60.5653 27.7958C60.3417 28.0363 60.0721 28.2295 59.7725 28.3641C59.473 28.4987 59.1495 28.572 58.8212 28.5796H58.8312ZM47.7412 23.0596V24.8596H52.0612C51.9935 25.7074 51.641 26.5074 51.0612 27.1296C50.629 27.5699 50.1094 27.9147 49.5359 28.1421C48.9624 28.3694 48.3476 28.4742 47.7312 28.4496C46.4582 28.4496 45.2373 27.9439 44.3371 27.0437C43.4369 26.1436 42.9312 24.9227 42.9312 23.6496C42.9312 22.3766 43.4369 21.1557 44.3371 20.2555C45.2373 19.3553 46.4582 18.8496 47.7312 18.8496C48.949 18.8298 50.125 19.2937 51.0012 20.1396L52.2712 18.8696C51.6797 18.2707 50.9739 17.7965 50.1958 17.4753C49.4177 17.1541 48.583 16.9923 47.7412 16.9996C46.8522 16.965 45.9654 17.1103 45.1338 17.4266C44.3023 17.7429 43.5432 18.2239 42.902 18.8406C42.2607 19.4574 41.7506 20.1972 41.4022 21.0158C41.0537 21.8344 40.8741 22.715 40.8741 23.6046C40.8741 24.4943 41.0537 25.3748 41.4022 26.1934C41.7506 27.012 42.2607 27.7519 42.902 28.3686C43.5432 28.9854 44.3023 29.4663 45.1338 29.7827C45.9654 30.099 46.8522 30.2442 47.7412 30.2096C48.5972 30.2483 49.4515 30.1032 50.2466 29.7841C51.0418 29.465 51.7594 28.9793 52.3512 28.3596C53.3989 27.2086 53.9582 25.6954 53.9112 24.1396C53.9144 23.7606 53.8809 23.3822 53.8112 23.0096L47.7412 23.0596ZM93.0512 24.4596C92.7904 23.6924 92.3027 23.0224 91.6527 22.5385C91.0027 22.0545 90.221 21.7795 89.4112 21.7496C88.8642 21.7486 88.3228 21.8597 87.8204 22.0762C87.3181 22.2926 86.8655 22.6098 86.4906 23.0082C86.1157 23.4065 85.8265 23.8775 85.6408 24.392C85.4552 24.9065 85.377 25.4537 85.4112 25.9996C85.3991 26.5585 85.4997 27.1142 85.7071 27.6333C85.9144 28.1525 86.2244 28.6245 86.6183 29.0212C87.0122 29.4179 87.482 29.7311 87.9996 29.9422C88.5173 30.1533 89.0722 30.2578 89.6312 30.2496C90.3307 30.2534 91.0202 30.0836 91.638 29.7555C92.2558 29.4274 92.7826 28.9513 93.1712 28.3696L91.7212 27.3696C91.5048 27.7304 91.1984 28.0288 90.8321 28.2357C90.4657 28.4425 90.0519 28.5507 89.6312 28.5496C89.198 28.5661 88.7699 28.4519 88.4025 28.2219C88.0352 27.9918 87.7455 27.6565 87.5712 27.2596L93.2612 24.9096L93.0512 24.4596ZM87.2512 25.8796C87.2309 25.5703 87.2726 25.2601 87.3737 24.9671C87.4748 24.6741 87.6334 24.4042 87.8402 24.1732C88.0469 23.9423 88.2977 23.7549 88.5777 23.6221C88.8578 23.4892 89.1615 23.4136 89.4712 23.3996C89.7938 23.3784 90.1155 23.4523 90.3964 23.6123C90.6773 23.7723 90.905 24.0113 91.0512 24.2996L87.2512 25.8796ZM82.6312 29.9996H84.5012V17.4996H82.6312V29.9996ZM79.5712 22.6996H79.5012C79.2194 22.3845 78.8741 22.1326 78.4881 21.9602C78.1021 21.7879 77.684 21.6991 77.2612 21.6996C76.1684 21.7526 75.1379 22.2241 74.3832 23.0162C73.6285 23.8084 73.2075 24.8605 73.2075 25.9546C73.2075 27.0487 73.6285 28.1009 74.3832 28.893C75.1379 29.6852 76.1684 30.1566 77.2612 30.2096C77.685 30.2168 78.1051 30.1309 78.4921 29.9581C78.8792 29.7854 79.2236 29.5299 79.5012 29.2096H79.5612V29.8196C79.5612 31.4496 78.6912 32.3196 77.2912 32.3196C76.8249 32.3087 76.3724 32.1593 75.9913 31.8904C75.6102 31.6215 75.3178 31.2453 75.1512 30.8096L73.5212 31.4896C73.828 32.236 74.3508 32.8737 75.0225 33.3209C75.6943 33.7681 76.4842 34.0045 77.2912 33.9996C79.4812 33.9996 81.2912 32.7096 81.2912 29.5696V21.9996H79.5712V22.6996ZM77.4312 28.5796C76.7862 28.5228 76.1858 28.2264 75.7485 27.7488C75.3111 27.2712 75.0686 26.6472 75.0686 25.9996C75.0686 25.3521 75.3111 24.728 75.7485 24.2505C76.1858 23.7729 76.7862 23.4765 77.4312 23.4196C77.751 23.436 78.0643 23.5163 78.3527 23.6557C78.641 23.795 78.8985 23.9907 79.1101 24.2311C79.3216 24.4716 79.4829 24.7519 79.5844 25.0556C79.6859 25.3593 79.7256 25.6803 79.7012 25.9996C79.7285 26.3203 79.6904 26.6432 79.5894 26.9488C79.4883 27.2544 79.3263 27.5362 79.1132 27.7774C78.9 28.0186 78.6402 28.214 78.3494 28.3519C78.0586 28.4898 77.7428 28.5673 77.4212 28.5796H77.4312ZM101.811 17.4996H97.3412V29.9996H99.2112V25.2596H101.821C102.354 25.2979 102.889 25.226 103.393 25.0484C103.897 24.8707 104.359 24.5912 104.75 24.2271C105.141 23.8631 105.453 23.4224 105.667 22.9325C105.88 22.4426 105.99 21.914 105.99 21.3796C105.99 20.8453 105.88 20.3167 105.667 19.8268C105.453 19.3369 105.141 18.8962 104.75 18.5321C104.359 18.1681 103.897 17.8885 103.393 17.7109C102.889 17.5333 102.354 17.4613 101.821 17.4996H101.811ZM101.811 23.4996H99.2012V19.2396H101.851C102.42 19.2396 102.966 19.4656 103.368 19.8679C103.77 20.2702 103.996 20.8157 103.996 21.3846C103.996 21.9535 103.77 22.4991 103.368 22.9014C102.966 23.3036 102.42 23.5296 101.851 23.5296L101.811 23.4996ZM113.341 21.6996C112.66 21.6589 111.983 21.818 111.391 22.1574C110.799 22.4967 110.32 23.0014 110.011 23.6096L111.671 24.2996C111.835 23.998 112.083 23.7504 112.385 23.5871C112.686 23.4237 113.029 23.3517 113.371 23.3796C113.609 23.3519 113.849 23.3717 114.079 23.438C114.308 23.5042 114.523 23.6155 114.709 23.7653C114.895 23.9152 115.049 24.1007 115.163 24.3109C115.277 24.5211 115.348 24.7518 115.371 24.9896V25.1196C114.771 24.8016 114.101 24.6368 113.421 24.6396C111.631 24.6396 109.821 25.6396 109.821 27.4496C109.839 27.8356 109.934 28.214 110.1 28.5627C110.267 28.9113 110.501 29.223 110.79 29.4794C111.079 29.7358 111.417 29.9316 111.783 30.0553C112.149 30.179 112.536 30.2281 112.921 30.1996C113.392 30.2334 113.863 30.1399 114.286 29.9287C114.708 29.7176 115.066 29.3967 115.321 28.9996H115.381V29.9996H117.181V25.1896C117.181 22.9996 115.521 21.7296 113.391 21.7296L113.341 21.6996ZM113.111 28.5496C112.501 28.5496 111.651 28.2396 111.651 27.4896C111.651 26.4896 112.711 26.1596 113.651 26.1596C114.245 26.145 114.832 26.29 115.351 26.5796C115.289 27.121 115.033 27.6216 114.63 27.9891C114.228 28.3566 113.706 28.5664 113.161 28.5796L113.111 28.5496ZM123.741 21.9996L121.601 27.4196H121.541L119.321 21.9996H117.321L120.651 29.5796L118.751 33.7896H120.701L125.821 21.9996H123.741ZM106.931 29.9996H108.801V17.4996H106.931V29.9996Z" fill="white"/>
<path d="M42.1105 14.2699H41.3705V12.2699H42.0005C42.2878 11.9655 42.5047 11.6017 42.636 11.2043C42.7674 10.8069 42.8098 10.3855 42.7605 9.96987V6.99987H46.7605V12.2599H47.4305V14.2599H46.6905V12.9999H42.1105V14.2699ZM43.5005 9.99987C43.5472 10.8065 43.3484 11.6084 42.9305 12.2999H45.9305V7.73987H43.5005V9.99987ZM53.4105 12.2199C52.8259 12.8012 52.035 13.1275 51.2105 13.1275C50.3861 13.1275 49.5951 12.8012 49.0105 12.2199C48.4423 11.6184 48.1257 10.8223 48.1257 9.99487C48.1257 9.16744 48.4423 8.37135 49.0105 7.76987C49.2987 7.47962 49.6414 7.24925 50.019 7.09204C50.3966 6.93484 50.8015 6.85391 51.2105 6.85391C51.6195 6.85391 52.0245 6.93484 52.402 7.09204C52.7796 7.24925 53.1224 7.47962 53.4105 7.76987C53.981 8.3702 54.2991 9.16672 54.2991 9.99487C54.2991 10.823 53.981 11.6195 53.4105 12.2199ZM49.5805 11.7199C50.0134 12.151 50.5995 12.393 51.2105 12.393C51.8215 12.393 52.4076 12.151 52.8405 11.7199C53.2677 11.2489 53.5044 10.6358 53.5044 9.99987C53.5044 9.36398 53.2677 8.75086 52.8405 8.27987C52.4076 7.84875 51.8215 7.6067 51.2105 7.6067C50.5995 7.6067 50.0134 7.84875 49.5805 8.27987C49.1533 8.75086 48.9166 9.36398 48.9166 9.99987C48.9166 10.6358 49.1533 11.2489 49.5805 11.7199ZM58.1805 13.1299C57.7677 13.1381 57.3575 13.0627 56.9746 12.9081C56.5917 12.7536 56.244 12.5232 55.9525 12.2308C55.661 11.9383 55.4317 11.5899 55.2784 11.2065C55.1251 10.8231 55.051 10.4127 55.0605 9.99987C55.051 9.58708 55.1251 9.17662 55.2784 8.79323C55.4317 8.40983 55.661 8.06142 55.9525 7.76899C56.244 7.47655 56.5917 7.24614 56.9746 7.09162C57.3575 6.9371 57.7677 6.86167 58.1805 6.86987C58.5989 6.85951 59.0143 6.94411 59.3953 7.11731C59.7763 7.29051 60.1132 7.54781 60.3805 7.86987L59.8405 8.38987C59.643 8.13912 59.3883 7.93929 59.0978 7.80707C58.8073 7.67485 58.4893 7.61409 58.1705 7.62987C57.8636 7.6219 57.5582 7.67627 57.2729 7.78972C56.9875 7.90316 56.7282 8.07331 56.5105 8.28987C56.0769 8.76367 55.8365 9.38264 55.8365 10.0249C55.8365 10.6671 56.0769 11.2861 56.5105 11.7599C56.7282 11.9764 56.9875 12.1466 57.2729 12.26C57.5582 12.3735 57.8636 12.4279 58.1705 12.4199C58.5225 12.4167 58.8694 12.3352 59.1859 12.1813C59.5024 12.0273 59.7807 11.8048 60.0005 11.5299L60.5405 12.0699C60.2683 12.4 59.927 12.6663 59.5405 12.8499C59.1136 13.0432 58.649 13.1389 58.1805 13.1299ZM63.6805 12.9999H62.9105V7.73987H61.2305V6.99987H65.3505V7.73987H63.6805V12.9999ZM70.6505 6.99987L68.3805 12.0599C68.2896 12.3592 68.1081 12.6229 67.8609 12.8146C67.6137 13.0063 67.313 13.1164 67.0005 13.1299C66.7938 13.1272 66.5898 13.083 66.4005 12.9999L66.6005 12.2899C66.722 12.3606 66.8599 12.3986 67.0005 12.3999C67.1475 12.4109 67.2943 12.376 67.4205 12.2999C67.541 12.1979 67.6338 12.0672 67.6905 11.9199L67.9105 11.4399L65.9105 7.00987H66.8205L68.3005 10.4499L69.7405 6.99987H70.6505ZM71.5205 12.9999V6.99987H75.8605V12.9999H75.0905V7.73987H72.2905V12.9999H71.5205ZM77.2305 12.9999V6.99987H78.0005V9.56987H81.0005V6.99987H81.7705V12.9999H81.0005V10.2899H78.0005V12.9999H77.2305ZM88.0605 12.2199C87.4759 12.8012 86.685 13.1275 85.8605 13.1275C85.036 13.1275 84.2451 12.8012 83.6605 12.2199C83.0923 11.6184 82.7757 10.8223 82.7757 9.99487C82.7757 9.16744 83.0923 8.37135 83.6605 7.76987C83.9487 7.47962 84.2914 7.24925 84.669 7.09204C85.0466 6.93484 85.4515 6.85391 85.8605 6.85391C86.2695 6.85391 86.6745 6.93484 87.052 7.09204C87.4296 7.24925 87.7724 7.47962 88.0605 7.76987C88.631 8.3702 88.9491 9.16672 88.9491 9.99487C88.9491 10.823 88.631 11.6195 88.0605 12.2199ZM84.2305 11.7199C84.6634 12.151 85.2495 12.393 85.8605 12.393C86.4715 12.393 87.0576 12.151 87.4905 11.7199C87.9177 11.2489 88.1544 10.6358 88.1544 9.99987C88.1544 9.36398 87.9177 8.75086 87.4905 8.27987C87.0576 7.84875 86.4715 7.6067 85.8605 7.6067C85.2495 7.6067 84.6634 7.84875 84.2305 8.27987C83.8033 8.75086 83.5666 9.36398 83.5666 9.99987C83.5666 10.6358 83.8033 11.2489 84.2305 11.7199ZM92.0905 12.9999V6.99987H94.2605C94.7111 6.99136 95.1477 7.15601 95.4805 7.45987C95.6476 7.60489 95.7808 7.78485 95.8707 7.98703C95.9605 8.18921 96.0048 8.40867 96.0005 8.62987C96.0052 8.89644 95.9284 9.15808 95.7805 9.37987C95.6337 9.5953 95.4292 9.7651 95.1905 9.86987C95.4806 9.9659 95.735 10.1471 95.9205 10.3899C96.1128 10.6349 96.2152 10.9385 96.2105 11.2499C96.2156 11.4804 96.1699 11.7092 96.0765 11.9201C95.9832 12.1309 95.8446 12.3187 95.6705 12.4699C95.3223 12.7911 94.8642 12.9664 94.3905 12.9599L92.0905 12.9999ZM92.8605 9.56987H94.2605C94.3913 9.57533 94.5216 9.55221 94.6425 9.50213C94.7634 9.45204 94.8719 9.3762 94.9605 9.27987C95.049 9.19959 95.1205 9.1023 95.1706 8.9938C95.2207 8.8853 95.2485 8.76782 95.2522 8.64836C95.256 8.52891 95.2356 8.40992 95.1924 8.29851C95.1491 8.18709 95.0839 8.08553 95.0005 7.99987C94.9169 7.90535 94.8136 7.83037 94.6978 7.78025C94.582 7.73013 94.4566 7.7061 94.3305 7.70987H92.9005L92.8605 9.56987ZM92.8605 12.2599H94.4105C94.5459 12.2644 94.6807 12.239 94.8052 12.1854C94.9296 12.1318 95.0407 12.0514 95.1305 11.9499C95.3068 11.767 95.4069 11.5239 95.4105 11.2699C95.4105 11.0047 95.3051 10.7503 95.1176 10.5628C94.9301 10.3752 94.6757 10.2699 94.4105 10.2699H92.8905L92.8605 12.2599Z" fill="white"/>
<path fill-rule="evenodd" clip-rule="evenodd" d="M51.2105 6.95391C50.8147 6.95391 50.4228 7.03223 50.0574 7.18436C49.6924 7.33634 49.361 7.55897 49.0823 7.83945C48.5322 8.42225 48.2257 9.19339 48.2257 9.99487C48.2257 10.7963 48.5321 11.5673 49.0821 12.1501C49.6479 12.7121 50.413 13.0275 51.2105 13.0275C52.0081 13.0275 52.7732 12.7121 53.339 12.15C53.8912 11.5683 54.1991 10.7969 54.1991 9.99487C54.1991 9.19272 53.8911 8.4212 53.3388 7.83955C53.0601 7.55902 52.7287 7.33636 52.3636 7.18436C51.9982 7.03223 51.6063 6.95391 51.2105 6.95391ZM49.9805 6.99973C50.3703 6.83745 50.7883 6.75391 51.2105 6.75391C51.6327 6.75391 52.0507 6.83745 52.4405 6.99973C52.8302 7.162 53.184 7.3998 53.4815 7.69942L53.483 7.70097C54.0712 8.31989 54.3991 9.14108 54.3991 9.99487C54.3991 10.8487 54.0711 11.6698 53.483 12.2888L53.481 12.2908C52.8777 12.8908 52.0614 13.2275 51.2105 13.2275C50.3596 13.2275 49.5433 12.8908 48.94 12.2908L48.9378 12.2886C48.352 11.6685 48.0257 10.8479 48.0257 9.99487C48.0257 9.1419 48.3521 8.32124 48.9378 7.7012L48.9395 7.6994C49.237 7.39978 49.5908 7.162 49.9805 6.99973ZM85.8605 6.95391C85.4647 6.95391 85.0728 7.03223 84.7074 7.18436C84.3424 7.33633 84.0111 7.55894 83.7324 7.8394C83.1822 8.42221 82.8757 9.19337 82.8757 9.99487C82.8757 10.7963 83.1821 11.5673 83.7321 12.1501C84.2979 12.7121 85.063 13.0275 85.8605 13.0275C86.6581 13.0275 87.4233 12.712 87.989 12.1499C88.5412 11.5683 88.8491 10.7969 88.8491 9.99487C88.8491 9.19274 88.5411 8.42123 87.9888 7.83958C87.7101 7.55904 87.3787 7.33636 87.0136 7.18436C86.6482 7.03223 86.2563 6.95391 85.8605 6.95391ZM84.6305 6.99973C85.0203 6.83745 85.4383 6.75391 85.8605 6.75391C86.2827 6.75391 86.7007 6.83745 87.0905 6.99973C87.4802 7.162 87.834 7.3998 88.1315 7.69942L88.133 7.70097C88.7211 8.3199 89.0491 9.14108 89.0491 9.99487C89.0491 10.8487 88.7211 11.6698 88.133 12.2888L88.131 12.2908C87.5277 12.8908 86.7114 13.2275 85.8605 13.2275C85.0096 13.2275 84.1933 12.8908 83.59 12.2908L83.5878 12.2886C83.002 11.6685 82.6757 10.8479 82.6757 9.99487C82.6757 9.1419 83.0021 8.32124 83.5878 7.7012L83.5895 7.6994C83.887 7.39978 84.2408 7.162 84.6305 6.99973ZM59.3539 7.20835C58.9866 7.0414 58.5863 6.95986 58.183 6.96984L58.1785 6.96995C57.7792 6.96202 57.3824 7.03488 57.012 7.18435C56.6416 7.33382 56.3053 7.55671 56.0233 7.83958C55.7413 8.12246 55.5195 8.45948 55.3712 8.83035C55.223 9.20122 55.1513 9.59826 55.1605 9.99757L55.1606 10.0022C55.1514 10.4015 55.223 10.7985 55.3712 11.1694C55.5195 11.5403 55.7413 11.8773 56.0233 12.1602C56.3053 12.443 56.6416 12.6659 57.012 12.8154C57.3824 12.9649 57.7792 13.0378 58.1785 13.0299L58.1805 13.1299L58.1824 13.0299C58.6358 13.0386 59.0853 12.9461 59.4984 12.7592C59.844 12.5949 60.1522 12.3621 60.4045 12.0753L60.007 11.6778C59.7903 11.9252 59.5261 12.127 59.2296 12.2712C58.9 12.4315 58.5388 12.5165 58.1722 12.5199C57.8521 12.5281 57.5335 12.4713 57.2359 12.353C56.938 12.2345 56.6672 12.0569 56.44 11.8308L56.4367 11.8275C55.9862 11.3352 55.7365 10.6921 55.7365 10.0249C55.7365 9.35764 55.9863 8.7146 56.4367 8.22237L56.4399 8.21891C56.6672 7.9928 56.938 7.81523 57.2359 7.69679C57.5326 7.57881 57.8501 7.52202 58.1693 7.52981C58.5028 7.51391 58.8353 7.57775 59.1392 7.71605C59.4108 7.83964 59.6525 8.01949 59.8486 8.24324L60.2431 7.86339C59.9958 7.58572 59.693 7.36248 59.3539 7.20835ZM58.1805 13.2299C57.7549 13.2381 57.332 13.1602 56.9371 13.0009C56.5417 12.8413 56.1827 12.6033 55.8817 12.3014C55.5806 11.9994 55.3438 11.6396 55.1855 11.2436C55.0275 10.8484 54.951 10.4254 54.9605 9.99987C54.951 9.57436 55.0275 9.15131 55.1855 8.7561C55.3438 8.36018 55.5806 8.00038 55.8817 7.69839C56.1827 7.3964 56.5417 7.15845 56.9371 6.99888C57.3319 6.83959 57.7547 6.76169 58.1803 6.76985C58.613 6.75947 59.0426 6.84713 59.4367 7.02627C59.8315 7.20572 60.1805 7.47231 60.4575 7.80601L60.5168 7.87748L59.8303 8.53853L59.7619 8.45175C59.5743 8.21354 59.3324 8.02369 59.0564 7.89809C58.7804 7.77248 58.4783 7.71476 58.1754 7.72975L58.1679 7.73012C57.8745 7.7225 57.5826 7.7742 57.3098 7.88264C57.0378 7.9908 56.7904 8.15288 56.5827 8.35911C56.167 8.81425 55.9365 9.40841 55.9365 10.0249C55.9365 10.6413 56.167 11.2355 56.5827 11.6906C56.7904 11.8969 57.0378 12.0589 57.3098 12.1671C57.5826 12.2756 57.8745 12.3275 58.1679 12.3199L58.1696 12.3199C58.5067 12.3169 58.839 12.2388 59.1422 12.0914C59.4453 11.9439 59.7119 11.7308 59.9224 11.4674L59.9922 11.3801L60.6755 12.0634L60.6177 12.1335C60.3362 12.4749 59.9831 12.7503 59.5834 12.9402L59.5818 12.941C59.142 13.1402 58.6633 13.2389 58.1805 13.2299ZM95.4131 7.53372C95.0992 7.24712 94.6874 7.09183 94.2624 7.09986L94.2605 7.09987H92.1905V12.8981L94.3888 12.8599L94.3919 12.8599C94.84 12.8661 95.2733 12.7002 95.6027 12.3964L95.6049 12.3943C95.7679 12.2528 95.8977 12.077 95.9851 11.8796C96.0725 11.6822 96.1153 11.4679 96.1105 11.2521L96.1105 11.2484C96.1148 10.9599 96.02 10.6786 95.8418 10.4516L95.8411 10.4506C95.6677 10.2238 95.4301 10.0545 95.1591 9.96481L94.9118 9.88297L95.1503 9.77831C95.3717 9.68115 95.5613 9.52374 95.6975 9.32404C95.834 9.11925 95.9049 8.87771 95.9005 8.63163V8.62791C95.9046 8.42136 95.8632 8.21644 95.7793 8.02765C95.6954 7.83885 95.571 7.67081 95.415 7.5354L95.4131 7.53372ZM95.5471 7.38522C95.1957 7.06482 94.735 6.89114 94.2596 6.89987H91.9905V13.1016L94.3891 13.0599L94.3907 13.0599C94.8889 13.0664 95.3707 12.8819 95.7372 12.5444C95.9219 12.3837 96.0689 12.1844 96.168 11.9606C96.267 11.7368 96.3157 11.4941 96.3105 11.2495L96.3105 11.2514L96.2105 11.2499L96.3105 11.2477L96.3105 11.2495C96.3151 10.9161 96.2054 10.5911 95.9995 10.3286C95.8466 10.1287 95.6499 9.96796 95.4256 9.85808C95.5982 9.74943 95.7474 9.60604 95.8631 9.43619L95.8637 9.43536C96.0226 9.19715 96.1052 8.91622 96.1005 8.62995L96.1005 8.63183L96.0005 8.62987L96.1005 8.62811L96.1005 8.62995C96.1049 8.39473 96.0576 8.16141 95.962 7.94642C95.8664 7.73125 95.7248 7.53968 95.5471 7.38522ZM42.6605 6.89987H46.8605V12.1599H47.5305V14.3599H46.5905V13.0999H42.2105V14.3699H41.2705V12.1699H41.9569C42.2197 11.8826 42.4188 11.5429 42.5411 11.1729C42.6678 10.7894 42.7088 10.3828 42.6612 9.98166L42.6605 9.97579V6.89987ZM42.8605 7.09987V9.96401C42.9105 10.3923 42.8663 10.8263 42.731 11.2357C42.5951 11.647 42.3705 12.0235 42.0732 12.3385L42.0436 12.3699H41.4705V14.1699H42.0105V12.8999H46.7905V14.1599H47.3305V12.3599H46.6605V7.09987H42.8605ZM61.1305 6.89987H65.4505V7.83987H63.7805V13.0999H62.8105V7.83987H61.1305V6.89987ZM61.3305 7.09987V7.63987H63.0105V12.8999H63.5805V7.63987H65.2505V7.09987H61.3305ZM69.6739 6.89987H70.805L68.4743 12.0951C68.3768 12.4117 68.184 12.6906 67.9221 12.8936C67.6586 13.098 67.338 13.2154 67.0048 13.2298L66.9992 13.23C66.7791 13.2272 66.5618 13.18 66.3603 13.0914L66.2807 13.0564L66.5393 12.1385L66.6508 12.2035C66.7573 12.2655 66.8782 12.2987 67.0014 12.2999L67.008 12.2999C67.1317 12.3093 67.2551 12.2809 67.362 12.2183C67.4667 12.1279 67.5475 12.0131 67.5972 11.884L67.5994 11.8781L67.8006 11.4396L65.7556 6.90987H66.8863L68.2991 10.1936L69.6739 6.89987ZM69.8071 7.09987L68.3019 10.7061L66.7547 7.10987H66.0654L68.0204 11.4402L67.7827 11.9588C67.7199 12.1206 67.6176 12.2641 67.4851 12.3762L67.479 12.3814L67.4721 12.3855C67.3291 12.4718 67.1629 12.5117 66.9963 12.4998C66.882 12.4983 66.7694 12.4754 66.6642 12.4324L66.521 12.9408C66.674 12.9973 66.8356 13.0275 66.999 13.0298C67.2898 13.0168 67.5695 12.914 67.7996 12.7356C68.0304 12.5566 68.2 12.3103 68.2848 12.0308L68.2867 12.0247L70.496 7.09987H69.8071ZM71.4205 6.89987H75.9605V13.0999H74.9905V7.83987H72.3905V13.0999H71.4205V6.89987ZM71.6205 7.09987V12.8999H72.1905V7.63987H75.1905V12.8999H75.7605V7.09987H71.6205ZM77.1305 6.89987H78.1005V9.46987H80.9005V6.89987H81.8705V13.0999H80.9005V10.3899H78.1005V13.0999H77.1305V6.89987ZM77.3305 7.09987V12.8999H77.9005V10.1899H81.1005V12.8999H81.6705V7.09987H81.1005V9.66987H77.9005V7.09987H77.3305ZM49.5099 8.20902C49.9616 7.75923 50.5731 7.5067 51.2105 7.5067C51.8479 7.5067 52.4594 7.75923 52.9111 8.20902L52.9147 8.2126C53.3586 8.70198 53.6044 9.33914 53.6044 9.99987C53.6044 10.6606 53.3585 11.2977 52.9146 11.7871L52.9112 11.7908C52.4595 12.2406 51.8479 12.493 51.2105 12.493C50.5731 12.493 49.9616 12.2405 49.5099 11.7907L49.5805 11.7199L49.5064 11.7871C49.0625 11.2977 48.8166 10.6606 48.8166 9.99987C48.8166 9.33914 49.0625 8.70207 49.5064 8.21269L49.5099 8.20902ZM49.6529 11.6508C50.0669 12.0621 50.6268 12.293 51.2105 12.293C51.7942 12.293 52.3541 12.0621 52.7681 11.6508C53.1776 11.1985 53.4044 10.6101 53.4044 9.99987C53.4044 9.38967 53.1776 8.80128 52.7681 8.34895C52.3541 7.9376 51.7942 7.7067 51.2105 7.7067C50.6268 7.7067 50.0669 7.9376 49.6529 8.34895C49.2434 8.80128 49.0166 9.38967 49.0166 9.99987C49.0166 10.6101 49.2434 11.1985 49.6529 11.6508ZM84.16 8.20902C84.6116 7.75923 85.2231 7.5067 85.8605 7.5067C86.4979 7.5067 87.1094 7.75923 87.5611 8.20902L87.5647 8.2126C88.0086 8.70198 88.2544 9.33914 88.2544 9.99987C88.2544 10.6606 88.0085 11.2977 87.5646 11.7871L87.5612 11.7908C87.1095 12.2406 86.4979 12.493 85.8605 12.493C85.2231 12.493 84.6116 12.2405 84.16 11.7907L84.2305 11.7199L84.1564 11.7871C83.7125 11.2977 83.4666 10.6606 83.4666 9.99987C83.4666 9.33914 83.7125 8.70207 84.1564 8.21269L84.16 8.20902ZM84.3029 11.6508C84.7169 12.0621 85.2768 12.293 85.8605 12.293C86.4442 12.293 87.0041 12.0621 87.4181 11.6508C87.8276 11.1985 88.0544 10.6101 88.0544 9.99987C88.0544 9.38967 87.8276 8.80127 87.4181 8.34893C87.0041 7.9376 86.4442 7.7067 85.8605 7.7067C85.2768 7.7067 84.7169 7.9376 84.3029 8.34893C83.8934 8.80127 83.6666 9.38967 83.6666 9.99987C83.6666 10.6101 83.8934 11.1985 84.3029 11.6508ZM94.3291 7.60987C94.4693 7.60591 94.6087 7.63273 94.7375 7.68848C94.8661 7.74411 94.9809 7.8272 95.0739 7.9319C95.1658 8.02681 95.2378 8.13915 95.2856 8.26232C95.3337 8.38625 95.3563 8.51861 95.3522 8.65149C95.348 8.78436 95.3172 8.91505 95.2614 9.03574C95.2063 9.15506 95.128 9.26219 95.031 9.3509C94.9332 9.45634 94.8137 9.53944 94.6808 9.59451C94.5471 9.64989 94.403 9.6756 94.2585 9.66987H92.7583L92.8026 7.60987H94.3291ZM94.6581 7.87202C94.5558 7.82773 94.4449 7.8065 94.3335 7.80983L94.3305 7.80987H92.9984L92.9627 9.46987H94.2647C94.3809 9.47473 94.4968 9.45426 94.6042 9.40974C94.7117 9.36522 94.8082 9.2978 94.8869 9.21218L94.89 9.20884L94.8933 9.2058C94.9719 9.13453 95.0354 9.04817 95.0798 8.95186C95.1243 8.85556 95.149 8.75128 95.1523 8.64524C95.1556 8.53921 95.1375 8.43359 95.0991 8.33469C95.0607 8.2358 95.0028 8.14564 94.9288 8.06961L94.9255 8.06618C94.8517 7.98265 94.7604 7.91631 94.6581 7.87202ZM43.4005 7.63987H46.0305V12.3999H42.7532L42.8449 12.2481C43.2524 11.5739 43.4462 10.7921 43.4007 10.0056L43.4003 9.99987L43.4005 7.63987ZM43.6005 7.83987V9.997C43.6444 10.7645 43.4715 11.5276 43.1034 12.1999H45.8305V7.83987H43.6005ZM92.792 10.1699H94.4105C94.7023 10.1699 94.982 10.2858 95.1883 10.4921C95.3946 10.6983 95.5105 10.9781 95.5105 11.2699L95.5105 11.2713C95.5066 11.55 95.397 11.8168 95.2039 12.0178C95.1047 12.1295 94.982 12.2181 94.8447 12.2772C94.7073 12.3364 94.5585 12.3646 94.4089 12.3599H92.759L92.792 10.1699ZM92.989 10.3699L92.962 12.1599H94.4139C94.5346 12.1639 94.6547 12.1413 94.7656 12.0935C94.8766 12.0458 94.9756 11.9741 95.0556 11.8836L95.0584 11.8804C95.217 11.716 95.3071 11.4975 95.3105 11.2691C95.3103 11.0307 95.2155 10.8021 95.0469 10.6335C94.8781 10.4647 94.6492 10.3699 94.4105 10.3699H92.989Z" fill="white"/>
<path d="M10.4403 7.53973C10.1143 7.93084 9.94982 8.43152 9.98027 8.93973V31.0597C9.94982 31.5679 10.1143 32.0686 10.4403 32.4597L10.5103 32.5297L22.9003 20.1497V19.8597L10.5103 7.46973L10.4403 7.53973Z" fill="url(#paint0_linear_2600_31011)"/>
<path d="M27.0005 24.2802L22.9005 20.1502V19.8602L27.0005 15.7202L27.0905 15.7702L32.0005 18.5602C33.4005 19.3502 33.4005 20.6502 32.0005 21.4502L27.1105 24.2302L27.0005 24.2802Z" fill="url(#paint1_linear_2600_31011)"/>
<path d="M27.1205 24.22L22.9006 20L10.4406 32.46C10.7259 32.7109 11.0899 32.8541 11.4697 32.8651C11.8495 32.876 12.2212 32.754 12.5206 32.52L27.1306 24.22" fill="url(#paint2_linear_2600_31011)"/>
<path d="M27.1208 15.78L12.5108 7.48005C12.2114 7.24606 11.8398 7.124 11.46 7.13496C11.0802 7.14591 10.7161 7.2892 10.4308 7.54005L22.9008 20L27.1208 15.78Z" fill="url(#paint3_linear_2600_31011)"/>
<path opacity="0.2" d="M27.0006 24.1299L12.5106 32.3799C12.2218 32.5957 11.871 32.7124 11.5106 32.7124C11.1501 32.7124 10.7993 32.5957 10.5106 32.3799L10.4406 32.4499L10.5106 32.5199C10.7986 32.7373 11.1497 32.8549 11.5106 32.8549C11.8714 32.8549 12.2225 32.7373 12.5106 32.5199L27.1206 24.2199L27.0006 24.1299Z" fill="black"/>
<path opacity="0.12" d="M10.4403 32.32C10.1143 31.9289 9.94982 31.4282 9.98027 30.92V31.07C9.94982 31.5782 10.1143 32.0789 10.4403 32.47L10.5103 32.4L10.4403 32.32ZM32.0003 21.3L27.0003 24.13L27.0903 24.22L32.0003 21.44C32.2789 21.3091 32.518 21.1071 32.6936 20.8543C32.8692 20.6014 32.975 20.3068 33.0003 20C32.944 20.2787 32.8247 20.5408 32.6513 20.7662C32.4779 20.9915 32.2552 21.1742 32.0003 21.3Z" fill="black"/>
<path opacity="0.25" d="M12.5108 7.61945L32.0008 18.6995C32.2558 18.8253 32.4785 19.0079 32.6519 19.2333C32.8252 19.4586 32.9446 19.7207 33.0008 19.9995C32.9755 19.6927 32.8697 19.398 32.6941 19.1452C32.5186 18.8924 32.2794 18.6903 32.0008 18.5595L12.5108 7.47945C11.1108 6.68945 9.97083 7.34945 9.97083 8.94945V9.09945C10.0008 7.48945 11.1208 6.82945 12.5108 7.61945Z" fill="white"/>
</g>
<defs>
<linearGradient id="paint0_linear_2600_31011" x1="21.8003" y1="8.70973" x2="5.02027" y2="25.4897" gradientUnits="userSpaceOnUse">
<stop stop-color="#00A0FF"/>
<stop offset="0.01" stop-color="#00A1FF"/>
<stop offset="0.26" stop-color="#00BEFF"/>
<stop offset="0.51" stop-color="#00D2FF"/>
<stop offset="0.76" stop-color="#00DFFF"/>
<stop offset="1" stop-color="#00E3FF"/>
</linearGradient>
<linearGradient id="paint1_linear_2600_31011" x1="33.8305" y1="20.0002" x2="9.64052" y2="20.0002" gradientUnits="userSpaceOnUse">
<stop stop-color="#FFE000"/>
<stop offset="0.41" stop-color="#FFBD00"/>
<stop offset="0.78" stop-color="#FFA500"/>
<stop offset="1" stop-color="#FF9C00"/>
</linearGradient>
<linearGradient id="paint2_linear_2600_31011" x1="24.8306" y1="22.3" x2="2.07055" y2="45.05" gradientUnits="userSpaceOnUse">
<stop stop-color="#FF3A44"/>
<stop offset="1" stop-color="#C31162"/>
</linearGradient>
<linearGradient id="paint3_linear_2600_31011" x1="7.30079" y1="0.180049" x2="17.4608" y2="10.34" gradientUnits="userSpaceOnUse">
<stop stop-color="#32A071"/>
<stop offset="0.07" stop-color="#2DA771"/>
<stop offset="0.48" stop-color="#15CF74"/>
<stop offset="0.8" stop-color="#06E775"/>
<stop offset="1" stop-color="#00F076"/>
</linearGradient>
<clipPath id="clip0_2600_31011">
<rect width="135" height="40" fill="white"/>
</clipPath>
</defs>
</svg>
